<?xml version="1.0" encoding="utf-8"?>
<!-- Generator: Adobe Illustrator 24.1.1, SVG Export Plug-In . SVG Version: 6.00 Build 0)  -->
<svg version="1.1" id="Layer_1" xmlns="http://www.w3.org/2000/svg" xmlns:xlink="http://www.w3.org/1999/xlink" x="0px" y="0px"
	 viewBox="0 0 15 20" style="enable-background:new 0 0 15 20;" xml:space="preserve">
<style type="text/css">
	.st0{fill:#907C6A;}
</style>
<path class="st0" d="M7.9,9.5C6.5,9.5,5.4,8.4,5.4,7s1.1-2.5,2.5-2.5c1.4,0,2.5,1.1,2.5,2.5S9.2,9.5,7.9,9.5z"/>
<path class="st0" d="M7.9,0c-3.9,0-7,3.1-7,7c0,4.5,6,11.8,6.2,12.1L7.9,20l0.8-0.9c0.3-0.3,6.2-7.6,6.2-12.1C14.8,3.1,11.7,0,7.9,0
	z M7.9,16.8c-1.9-2.5-5-7.1-5-9.8c0-2.8,2.2-5,5-5c2.8,0,5,2.2,5,5C12.8,9.7,9.7,14.4,7.9,16.8z"/>
</svg>
