<?xml version="1.0" encoding="utf-8"?>
<!-- Generator: Adobe Illustrator 24.1.1, SVG Export Plug-In . SVG Version: 6.00 Build 0)  -->
<svg version="1.1" id="Layer_1" xmlns="http://www.w3.org/2000/svg" xmlns:xlink="http://www.w3.org/1999/xlink" x="0px" y="0px"
	 viewBox="0 0 20 20" style="enable-background:new 0 0 20 20;" xml:space="preserve">
<style type="text/css">
	.st0{fill:none;stroke:#907C6A;stroke-width:1.5;}
	.st1{fill:url(#SVGID_1_);stroke:#907C6A;}
</style>
<path class="st0" d="M19.3,10c0,5.1-4.1,9.2-9.3,9.2c-5.1,0-9.3-4.1-9.3-9.2c0-5.1,4.1-9.3,9.3-9.3C15.1,0.8,19.3,4.9,19.3,10z"/>
<linearGradient id="SVGID_1_" gradientUnits="userSpaceOnUse" x1="9.8153" y1="20.8123" x2="9.8153" y2="2.231" gradientTransform="matrix(1 0 0 -1 0 21.4174)">
	<stop  offset="0" style="stop-color:#936639"/>
	<stop  offset="1" style="stop-color:#656D4A"/>
</linearGradient>
<path class="st1" d="M0.6,8.5C0.6,8.5,0.6,8.5,0.6,8.5L0.6,8.5l0-0.5L0.6,8.5z M0.6,8.5L0.6,8.5L0.6,8.5C0.6,8.5,0.6,8.5,0.6,8.5
	C0.6,8.5,0.6,8.5,0.6,8.5z M0.6,8.5L0.6,8.5L0.1,8.4L0.6,8.5L0.6,8.5z M0.6,8.5C0.6,8.5,0.6,8.5,0.6,8.5C0.6,8.5,0.6,8.5,0.6,8.5
	C0.6,8.5,0.6,8.5,0.6,8.5L0.6,8.5z M12.2,12.2L12,11.7l-0.5,0.2c-2,1-4.3,2.7-7.3,5.6c-0.3-0.2-0.5-0.4-0.8-0.7
	c3.1-3,5.5-4.8,7.7-5.9l0.4-0.2l-0.2-0.4c-0.3-0.7-0.6-1.3-1-2L10.2,8L9.8,8.1C7.2,8.9,4.2,9.4,0.5,9.5c0-0.3,0.1-0.7,0.1-1
	C3.9,8.4,6.7,8,9,7.3l0.6-0.2L9.3,6.5c-1-1.7-2.2-3.3-3.6-5C6,1.4,6.3,1.2,6.6,1.1c1.4,1.8,2.7,3.5,3.8,5.3l0.2,0.4L11,6.6
	c2.1-0.8,3.9-1.9,5.8-3.3c0.2,0.2,0.5,0.5,0.7,0.8c-1.8,1.4-3.7,2.5-5.8,3.3l-0.5,0.2l0.3,0.5c0.3,0.6,0.6,1.2,0.9,1.9l0.2,0.4
	l0.4-0.1C15,9.6,17,9.5,19.5,9.5c0,0.2,0,0.3,0,0.5c0,0.2,0,0.3,0,0.5c-2.4,0-4.2,0.1-6.1,0.7l-0.5,0.2l0.2,0.5
	c0.8,2,1.3,4.1,1.7,6.4c-0.3,0.2-0.6,0.3-0.9,0.5C13.5,16.4,12.9,14.2,12.2,12.2z M4.2,17.5L4.2,17.5L4.2,17.5z M14.8,18.2
	C14.8,18.2,14.8,18.2,14.8,18.2C14.8,18.2,14.8,18.2,14.8,18.2L14.8,18.2L14.8,18.2z M5.7,1.5L5.7,1.5L5.7,1.5z M16.7,3.3L16.7,3.3
	L16.7,3.3z M17.4,4.1C17.4,4.1,17.4,4.1,17.4,4.1L17.4,4.1L17.4,4.1l0.3,0.4L17.4,4.1L17.4,4.1L17.4,4.1z M5.4,1.1L5.4,1.1L5.4,1.1z
	 M5.4,1.1L5.4,1.1L5.4,1.1z"/>
</svg>
