<?xml version="1.0" encoding="utf-8"?>
<!-- Generator: Adobe Illustrator 24.1.1, SVG Export Plug-In . SVG Version: 6.00 Build 0)  -->
<svg version="1.1" id="Layer_1" xmlns="http://www.w3.org/2000/svg" xmlns:xlink="http://www.w3.org/1999/xlink" x="0px" y="0px"
	 viewBox="0 0 20 20" style="enable-background:new 0 0 20 20;" xml:space="preserve">
<style type="text/css">
	.st0{fill:none;stroke:#907C6A;stroke-width:1.5;}
	.st1{fill:url(#SVGID_1_);}
	.st2{fill:#FFFFFF;filter:url(#Adobe_OpacityMaskFilter);}
	.st3{mask:url(#path-2-inside-1_5_1_);fill:#907C6A;}
</style>
<path class="st0" d="M0.8,3c0-1.2,1-2.3,2.3-2.3h14c1.2,0,2.3,1,2.3,2.3v14c0,1.2-1,2.3-2.3,2.3H3c-1.2,0-2.3-1-2.3-2.3V3z"/>
<linearGradient id="SVGID_1_" gradientUnits="userSpaceOnUse" x1="10" y1="17.4173" x2="10" y2="5.4173" gradientTransform="matrix(1 0 0 -1 0 21.4174)">
	<stop  offset="0" style="stop-color:#936639"/>
	<stop  offset="1" style="stop-color:#656D4A"/>
</linearGradient>
<path class="st1" d="M12,5c0-0.6-0.4-1-1-1s-1,0.4-1,1v7.5c0,0.8-0.7,1.5-1.5,1.5C7.7,14,7,13.3,7,12.5c0-0.7,0.6-1.4,1.2-1.5
	c0.5-0.1,0.9-0.6,0.8-1.2C8.9,9.3,8.3,8.9,7.8,9C6.2,9.4,5,10.9,5,12.5C5,14.4,6.6,16,8.5,16c1.9,0,3.5-1.6,3.5-3.5v0v-4
	C12.6,8.8,13.3,9,14,9c0.6,0,1-0.4,1-1c0-0.6-0.4-1-1-1C12.9,7,12,6.1,12,5z"/>
<defs>
	<filter id="Adobe_OpacityMaskFilter" filterUnits="userSpaceOnUse" x="2" y="1" width="16" height="18">
		<feColorMatrix  type="matrix" values="1 0 0 0 0  0 1 0 0 0  0 0 1 0 0  0 0 0 1 0"/>
	</filter>
</defs>
<mask maskUnits="userSpaceOnUse" x="2" y="1" width="16" height="18" id="path-2-inside-1_5_1_">
	<path class="st2" d="M12,5c0-0.6-0.4-1-1-1s-1,0.4-1,1v7.5c0,0.8-0.7,1.5-1.5,1.5C7.7,14,7,13.3,7,12.5c0-0.7,0.6-1.4,1.2-1.5
		c0.5-0.1,0.9-0.6,0.8-1.2C8.9,9.3,8.3,8.9,7.8,9C6.2,9.4,5,10.9,5,12.5C5,14.4,6.6,16,8.5,16c1.9,0,3.5-1.6,3.5-3.5v0v-4
		C12.6,8.8,13.3,9,14,9c0.6,0,1-0.4,1-1c0-0.6-0.4-1-1-1C12.9,7,12,6.1,12,5z"/>
</mask>
<path class="st3" d="M8.2,11L7.6,8l0,0L8.2,11z M9,9.8L6,10.4l0,0L9,9.8z M7.8,9L8.4,12l0,0L7.8,9z M12,12.5l3,0v0H12z M12,8.5
	l1.5-2.6L9,3.3v5.2H12z M15,5c0-2.2-1.8-4-4-4v6C9.9,7,9,6.1,9,5H15z M11,1C8.8,1,7,2.8,7,5h6c0,1.1-0.9,2-2,2V1z M7,5v7.5h6V5H7z
	 M7,12.5C7,11.7,7.7,11,8.5,11v6c2.5,0,4.5-2,4.5-4.5H7z M8.5,11c0.8,0,1.5,0.7,1.5,1.5H4C4,15,6,17,8.5,17V11z M10,12.5
	c0,0.4-0.2,0.7-0.3,0.9c-0.1,0.1-0.4,0.4-0.9,0.5L7.6,8C6.4,8.3,5.6,9,5,9.7c-0.6,0.7-1,1.7-1,2.8H10z M8.8,13.9
	c2.2-0.4,3.6-2.6,3.1-4.7L6,10.4C5.8,9.3,6.5,8.3,7.6,8L8.8,13.9z M11.9,9.2C11.5,7,9.4,5.6,7.2,6.1L8.4,12
	c-1.1,0.2-2.1-0.5-2.4-1.6L11.9,9.2z M7.2,6.1C4.1,6.7,2,9.6,2,12.5h6c0-0.1,0-0.2,0.1-0.4C8.3,12,8.4,12,8.4,12L7.2,6.1z M2,12.5
	C2,16.1,4.9,19,8.5,19v-6C8.2,13,8,12.8,8,12.5H2z M8.5,19c3.6,0,6.5-2.9,6.5-6.5l-6,0C9,12.8,8.8,13,8.5,13V19z M15,12.5L15,12.5
	l-6,0v0H15z M15,12.5v-4H9v4H15z M10.5,11.1c1,0.6,2.2,0.9,3.5,0.9V6c-0.2,0-0.4,0-0.5-0.1L10.5,11.1z M14,12c2.2,0,4-1.8,4-4h-6
	c0-1.1,0.9-2,2-2V12z M18,8c0-2.2-1.8-4-4-4v6c-1.1,0-2-0.9-2-2H18z M14,4c0.6,0,1,0.4,1,1H9c0,2.8,2.2,5,5,5V4z"/>
</svg>
