<?xml version="1.0" encoding="utf-8"?>
<!-- Generator: Adobe Illustrator 24.1.1, SVG Export Plug-In . SVG Version: 6.00 Build 0)  -->
<svg version="1.1" id="Layer_1" xmlns="http://www.w3.org/2000/svg" xmlns:xlink="http://www.w3.org/1999/xlink" x="0px" y="0px"
	 viewBox="0 0 20 20" style="enable-background:new 0 0 20 20;" xml:space="preserve">
<style type="text/css">
	.st0{fill:#907C6A;}
</style>
<path class="st0" d="M10,0C4.5,0,0,4.5,0,10c0,1.8,0.5,3.5,1.3,5L0,20l5.2-1.2C6.7,19.6,8.3,20,10,20c5.5,0,10-4.5,10-10
	c0-2.7-1-5.2-2.9-7.1S12.7,0,10,0z M10,2c2.1,0,4.1,0.8,5.7,2.3C17.2,5.9,18,7.9,18,10c0,4.4-3.6,8-8,8c-1.3,0-2.7-0.3-3.8-1
	l-0.7-0.4l-0.7,0.2l-2,0.5l0.5-1.8l0.2-0.8L3.1,14C2.4,12.8,2,11.4,2,10C2,5.6,5.6,2,10,2z M6.5,5.4c-0.2,0-0.5,0-0.7,0.3
	C5.5,6,4.9,6.6,4.9,7.8s0.9,2.4,1,2.6c0.2,0.2,1.8,2.8,4.3,3.8c2.1,0.8,2.5,0.6,3,0.6c0.5-0.1,1.5-0.6,1.7-1.2
	c0.2-0.6,0.2-1.1,0.3-1.4c-0.1-0.1-0.2-0.2-0.5-0.3c-0.2-0.1-1.4-0.7-1.7-0.8c-0.3-0.1-0.4-0.2-0.6,0.1c-0.2,0.3-0.7,0.8-0.8,1
	c-0.1,0.2-0.2,0.2-0.5,0.1c-0.2-0.1-1-0.3-2-1.2c-0.8-0.6-1.3-1.4-1.4-1.7C7.5,9.2,7.7,9,7.8,8.9l0.4-0.4c0.1-0.1,0.1-0.3,0.2-0.4
	c0.1-0.1,0.1-0.2,0-0.4C8.3,7.5,7.8,6.3,7.6,5.8C7.4,5.4,7.2,5.4,7,5.4H6.5z"/>
</svg>
