<?xml version="1.0" encoding="utf-8"?>
<!-- Generator: Adobe Illustrator 24.1.1, SVG Export Plug-In . SVG Version: 6.00 Build 0)  -->
<svg version="1.1" id="Layer_1" xmlns="http://www.w3.org/2000/svg" xmlns:xlink="http://www.w3.org/1999/xlink" x="0px" y="0px"
	 viewBox="0 0 20 20" style="enable-background:new 0 0 20 20;" xml:space="preserve">
<style type="text/css">
	.st0{fill:none;stroke:#907C6A;stroke-width:1.5;}
	.st1{fill:url(#SVGID_1_);stroke:#907C6A;stroke-width:2;}
</style>
<path class="st0" d="M1.8,6.7c0.1-1.3,1.1-2.3,2.4-2.3c1.4-0.1,3.3-0.2,5.6-0.2c2.3,0,4.3,0.1,5.6,0.2c1.3,0.1,2.3,1.1,2.4,2.3
	c0.1,0.9,0.1,2,0.1,2.9c0,0.9-0.1,2-0.1,2.9c-0.1,1.3-1.1,2.3-2.4,2.3c-1.4,0.1-3.3,0.2-5.6,0.2c-2.3,0-4.3-0.1-5.6-0.2
	c-1.3-0.1-2.3-1.1-2.4-2.3c-0.1-0.9-0.1-2-0.1-2.9C1.7,8.7,1.7,7.6,1.8,6.7z"/>
<linearGradient id="SVGID_1_" gradientUnits="userSpaceOnUse" x1="10.0674" y1="13.9554" x2="10.0674" y2="9.7126" gradientTransform="matrix(1 0 0 -1 0 21.4174)">
	<stop  offset="0" style="stop-color:#936639"/>
	<stop  offset="1" style="stop-color:#656D4A"/>
</linearGradient>
<path class="st1" d="M9.4,10.4V8.7l1.3,0.8L9.4,10.4z"/>
</svg>
