<?xml version="1.0" encoding="utf-8"?>
<!-- Generator: Adobe Illustrator 24.1.1, SVG Export Plug-In . SVG Version: 6.00 Build 0)  -->
<svg version="1.1" id="Layer_1" xmlns="http://www.w3.org/2000/svg" xmlns:xlink="http://www.w3.org/1999/xlink" x="0px" y="0px"
	 viewBox="0 0 20 20" style="enable-background:new 0 0 20 20;" xml:space="preserve">
<style type="text/css">
	.st0{fill:url(#SVGID_1_);}
	.st1{fill:none;stroke:#F9F6F4;stroke-width:0.2046;stroke-miterlimit:10;}
	.st2{fill:none;stroke:#FFFFFF;stroke-width:0.2046;stroke-miterlimit:10;}
	.st3{fill:none;stroke:#FDFDFB;stroke-width:0.2046;stroke-miterlimit:10;}
	.st4{fill:none;stroke:#FDFEFF;stroke-width:0.2046;stroke-miterlimit:10;}
	.st5{fill:#FFFFFF;}
</style>
<linearGradient id="SVGID_1_" gradientUnits="userSpaceOnUse" x1="3.8641" y1="10" x2="16.1359" y2="10">
	<stop  offset="0" style="stop-color:#9C2327"/>
	<stop  offset="1" style="stop-color:#BA4226"/>
</linearGradient>
<path class="st0" d="M16,5.7H4c-0.1,0-0.2,0.1-0.2,0.2v8.2c0,0.1,0.1,0.2,0.2,0.2H16c0.1,0,0.2-0.1,0.2-0.2V5.9
	C16.1,5.8,16,5.7,16,5.7z"/>
<g>
	<path class="st1" d="M12,10c0,1.1-0.9,2-2,2c-1.1,0-2-0.9-2-2s0.9-2,2-2S12,8.9,12,10z"/>
	<path class="st2" d="M7.6,10.1L7.6,10.1c0.1,1.3,1.2,2.3,2.5,2.3c1.2-0.1,2.2-1,2.2-2.2l0.1,0l3.2,3.9H4.4L7.6,10.1z"/>
	<polygon class="st3" points="4.2,13.6 4.2,8.4 7.3,9.9 	"/>
	<polygon class="st2" points="12.7,9.9 15.8,8.4 15.8,13.6 	"/>
	<path class="st4" d="M4.2,6.1h11.6v2l-3.5,1.7C12.2,8.4,11,7.5,9.8,7.7c-1.1,0.1-2,1-2.1,2.1L4.2,8.1V6.1z"/>
	<path class="st5" d="M8.5,10c0,0.8,0.7,1.5,1.5,1.5c0.1,0,0.2-0.1,0.2-0.2c0-0.1-0.1-0.2-0.2-0.2c-0.6,0-1.2-0.5-1.2-1.2
		c0-0.3,0.1-0.6,0.4-0.8S9.7,8.8,10,8.8c0.6,0,1.1,0.6,1.1,1.2v0.5c0,0.1-0.1,0.2-0.2,0.2c-0.1,0-0.2-0.1-0.2-0.2V10
		c0-0.5-0.4-0.8-0.8-0.8S9.2,9.5,9.2,10c0,0.5,0.4,0.8,0.8,0.8c0.2,0,0.4-0.1,0.5-0.2c0.1,0.3,0.3,0.4,0.6,0.4
		c0.2-0.1,0.4-0.3,0.4-0.5V10c0-0.8-0.6-1.5-1.4-1.5C9.2,8.5,8.5,9.1,8.5,10C8.5,10,8.5,10,8.5,10z M10,10.5c-0.3,0-0.5-0.2-0.5-0.5
		S9.7,9.5,10,9.5c0.3,0,0.5,0.2,0.5,0.5C10.5,10.3,10.3,10.5,10,10.5z"/>
</g>
</svg>
