<?xml version="1.0" encoding="utf-8"?>
<!-- Generator: Adobe Illustrator 24.1.1, SVG Export Plug-In . SVG Version: 6.00 Build 0)  -->
<svg version="1.1" id="Layer_1" xmlns="http://www.w3.org/2000/svg" xmlns:xlink="http://www.w3.org/1999/xlink" x="0px" y="0px"
	 viewBox="0 0 20 20" style="enable-background:new 0 0 20 20;" xml:space="preserve">
<style type="text/css">
	.st0{fill:none;stroke:#907C6A;stroke-width:1.5;}
</style>
<g>
	<path class="st0" d="M17.7,16.4L16.2,18c0,0-4.1,1.8-10-4.1C0.2,8,2,3.8,2,3.8l1.6-1.6c0.7-0.7,1.9-0.6,2.5,0.2l1.5,2
		C8.1,5.1,8.1,6,7.5,6.6L6.1,8c0,0,0,1.2,2.4,3.5c2.4,2.4,3.5,2.4,3.5,2.4l1.3-1.3c0.6-0.6,1.5-0.7,2.2-0.2l2,1.5
		C18.4,14.5,18.5,15.7,17.7,16.4z"/>
</g>
</svg>
