<?xml version="1.0" encoding="utf-8"?>
<!-- Generator: Adobe Illustrator 24.1.1, SVG Export Plug-In . SVG Version: 6.00 Build 0)  -->
<svg version="1.1" id="Layer_1" xmlns="http://www.w3.org/2000/svg" xmlns:xlink="http://www.w3.org/1999/xlink" x="0px" y="0px"
	 viewBox="0 0 20 20" style="enable-background:new 0 0 20 20;" xml:space="preserve">
<style type="text/css">
	.st0{fill:none;stroke:#907C6A;stroke-width:1.5;}
	.st1{fill:#907C6A;}
</style>
<path class="st0" d="M13.3,19.3H11H3c-0.4,0-1-0.3-1.5-0.8C1,18,0.8,17.4,0.8,17V3c0-0.4,0.3-1,0.8-1.5C2,1,2.6,0.8,3,0.8h14
	c0.4,0,1,0.3,1.5,0.8C19,2,19.3,2.6,19.3,3v14c0,0.4-0.3,1-0.8,1.5C18,19,17.4,19.3,17,19.3H13.3z"/>
<path class="st1" d="M12,8.2c0-0.6,0.4-1.1,1-1.1h1c0.6,0,1-0.5,1-1.1S14.6,5,14,5h-1c-1.7,0-3,1.4-3,3.2v2.1H9c-0.6,0-1,0.5-1,1.1
	c0,0.6,0.4,1.1,1,1.1h1v6.4c0,0.6,0.4,1.1,1,1.1s1-0.5,1-1.1v-6.4h2c0.6,0,1-0.5,1-1.1c0-0.6-0.4-1.1-1-1.1h-2V8.2z"/>
</svg>
