<?xml version="1.0" encoding="utf-8"?>
<!-- Generator: Adobe Illustrator 24.1.1, SVG Export Plug-In . SVG Version: 6.00 Build 0)  -->
<svg version="1.1" id="Layer_1" xmlns="http://www.w3.org/2000/svg" xmlns:xlink="http://www.w3.org/1999/xlink" x="0px" y="0px"
	 viewBox="0 0 20 20" style="enable-background:new 0 0 20 20;" xml:space="preserve">
<style type="text/css">
	.st0{fill:none;stroke:#907C6A;stroke-width:1.5;}
	.st1{fill:#907C6A;}
</style>
<path class="st0" d="M6.3,18.5l-0.2-0.1l-0.2,0L3.1,19c0,0,0,0,0,0c-0.2,0-0.3-0.1-0.3-0.2l0-2.8l0-0.3l-0.2-0.2
	C1.4,14,0.8,12.1,0.8,10c0-5.1,4.1-9.3,9.3-9.3c5.1,0,9.3,4.1,9.3,9.3c0,5.1-4.1,9.2-9.3,9.2C8.7,19.3,7.4,19,6.3,18.5z"/>
<path class="st1" d="M7.6,7.4l-2.5,4C5,11.6,5,11.9,5.1,12c0.1,0.1,0.3,0.2,0.5,0.1l2-1.5c0.3-0.2,0.7-0.2,1,0l2.5,1.7
	c0.4,0.3,1,0.2,1.2-0.3l2.5-4c0.1-0.2,0.1-0.4,0-0.6c-0.1-0.1-0.3-0.2-0.5-0.1l-2,1.5c-0.3,0.2-0.7,0.2-1,0L8.9,7.2
	C8.5,6.9,7.9,7,7.6,7.4z"/>
</svg>
