<?xml version="1.0" encoding="utf-8"?>
<!-- Generator: Adobe Illustrator 24.1.1, SVG Export Plug-In . SVG Version: 6.00 Build 0)  -->
<svg version="1.1" id="Layer_1" xmlns="http://www.w3.org/2000/svg" xmlns:xlink="http://www.w3.org/1999/xlink" x="0px" y="0px"
	 viewBox="0 0 20 20" style="enable-background:new 0 0 20 20;" xml:space="preserve">
<style type="text/css">
	.st0{fill:none;stroke:#907C6A;stroke-width:1.5;}
	.st1{fill:#907C6A;}
</style>
<path class="st0" d="M19.3,10c0,5.1-4.1,9.2-9.3,9.2c-5.1,0-9.3-4.1-9.3-9.2c0-5.1,4.1-9.3,9.3-9.3C15.1,0.8,19.3,4.9,19.3,10z"/>
<path class="st1" d="M7,18.7c-0.2-0.1-0.3-0.3-0.3-0.6l2.7-9.6C9.5,8,10,7.7,10.5,7.9C11.1,8,11.4,8.5,11.2,9l-1,3.6
	c1.2,0.3,2,0,2.6-0.3c0.7-0.5,1.2-1.3,1.3-2.3c0.1-1-0.1-2-0.7-2.8c-0.5-0.7-1.4-1.3-2.6-1.3c-1.8,0-2.9,0.8-3.4,1.8
	c-0.6,1-0.6,2.4,0,3.5c0.2,0.5,0,1-0.4,1.3c-0.5,0.2-1,0-1.3-0.4c-0.8-1.7-0.9-3.7,0-5.3C6.5,5.1,8.3,4,10.8,4
	c1.9,0,3.3,0.8,4.2,2.1c0.9,1.2,1.2,2.7,1,4.2c-0.2,1.4-0.8,2.8-2.1,3.7c-1.1,0.7-2.5,1-4.1,0.6l-1.2,4.2C8.5,18.9,8.2,19,8,19
	C7.7,18.9,7.3,18.8,7,18.7z"/>
</svg>
