<?xml version="1.0" encoding="utf-8"?>
<!-- Generator: Adobe Illustrator 24.1.1, SVG Export Plug-In . SVG Version: 6.00 Build 0)  -->
<svg version="1.1" id="Layer_1" xmlns="http://www.w3.org/2000/svg" xmlns:xlink="http://www.w3.org/1999/xlink" x="0px" y="0px"
	 viewBox="0 0 20 20" style="enable-background:new 0 0 20 20;" xml:space="preserve">
<style type="text/css">
	.st0{fill:#907C6A;}
	.st1{fill:none;stroke:#907C6A;stroke-width:1.5;}
</style>
<path class="st0" d="M14.4,8.3c0.3,3.8-2.5,6.8-6,6.8c-1.2,0-2.4-0.2-3.4-0.6c-0.2-0.1-0.1-0.4,0.1-0.4c1.2-0.1,2.1-0.4,2.8-1
	c1.5-1.5,1.8-2,2.1-4C9.9,8.9,9.9,8.6,9.9,8.3c0-1.2,1-2.2,2.2-2.2c0.8,0,1.4,0.4,1.8,1l0.9-0.1c0.2,0,0.4,0.2,0.2,0.4L14.4,8.3z"/>
<path class="st0" d="M8,13c-2.7-0.9-3.2-4.3-2.7-6c0.1-0.2,0.3-0.2,0.4,0c0.8,1.4,2.4,2.2,4.4,2C13.2,9,12.5,14.5,8,13z"/>
<path class="st1" d="M4,0.8h12c1.8,0,3.3,1.5,3.3,3.2v12c0,1.8-1.5,3.3-3.3,3.3H4c-1.8,0-3.3-1.5-3.3-3.3V4C0.8,2.2,2.2,0.8,4,0.8z"
	/>
</svg>
