<?xml version="1.0" encoding="utf-8"?>
<!-- Generator: Adobe Illustrator 24.1.1, SVG Export Plug-In . SVG Version: 6.00 Build 0)  -->
<svg version="1.1" id="Layer_1" xmlns="http://www.w3.org/2000/svg" xmlns:xlink="http://www.w3.org/1999/xlink" x="0px" y="0px"
	 viewBox="0 0 15 15" style="enable-background:new 0 0 15 15;" xml:space="preserve">
<style type="text/css">
	.st0{fill-rule:evenodd;clip-rule:evenodd;fill:#907C6A;}
</style>
<path class="st0" d="M7.5,13.5c3.3,0,6-2.7,6-6c0-3.3-2.7-6-6-6c-3.3,0-6,2.7-6,6C1.5,10.8,4.2,13.5,7.5,13.5z M7.5,15
	c4.1,0,7.5-3.4,7.5-7.5C15,3.4,11.6,0,7.5,0C3.4,0,0,3.4,0,7.5C0,11.6,3.4,15,7.5,15z"/>
<path class="st0" d="M8.8,12.1C9.4,11,9.8,9.4,9.8,7.5S9.4,4,8.8,2.9C8.2,1.7,7.7,1.5,7.5,1.5S6.8,1.7,6.2,2.9
	C5.6,4,5.3,5.6,5.3,7.5s0.4,3.5,0.9,4.6c0.6,1.2,1.1,1.4,1.3,1.4S8.2,13.3,8.8,12.1z M7.5,15c2.1,0,3.8-3.4,3.8-7.5
	C11.3,3.4,9.6,0,7.5,0S3.8,3.4,3.8,7.5C3.8,11.6,5.4,15,7.5,15z"/>
<path class="st0" d="M15,8.3c0-0.2,0-0.5,0-0.8s0-0.5,0-0.8H0C0,7,0,7.2,0,7.5S0,8,0,8.3H15z"/>
</svg>
