<?xml version="1.0" encoding="utf-8"?>
<!-- Generator: Adobe Illustrator 24.1.1, SVG Export Plug-In . SVG Version: 6.00 Build 0)  -->
<svg version="1.1" id="Layer_1" xmlns="http://www.w3.org/2000/svg" xmlns:xlink="http://www.w3.org/1999/xlink" x="0px" y="0px"
	 viewBox="0 0 20 20" style="enable-background:new 0 0 20 20;" xml:space="preserve">
<style type="text/css">
	.st0{fill:#FFFFFF;}
	.st1{fill:#907C6A;}
</style>
<path class="st0" d="M4,0h12c2.2,0,4,1.8,4,4v12c0,2.2-1.8,4-4,4H4c-2.2,0-4-1.8-4-4V4C0,1.8,1.8,0,4,0z"/>
<path class="st0" d="M0,3c0-1.7,1.3-3,3-3h14c1.7,0,3,1.3,3,3v14c0,1.7-1.3,3-3,3H3c-1.7,0-3-1.3-3-3V3z"/>
<path class="st0" d="M17,0H3C1.7,0,0,1.6,0,3v14c0,1.4,1.7,3,3,3h14c1.3,0,3-1.6,3-3V3C20,1.6,18.3,0,17,0z"/>
<path class="st1" d="M12,8.2c0-0.6,0.4-1.1,1-1.1h1c0.6,0,1-0.5,1-1.1S14.6,5,14,5h-1c-1.7,0-3,1.4-3,3.2v2.1H9c-0.6,0-1,0.5-1,1.1
	c0,0.6,0.4,1.1,1,1.1h1v6.4c0,0.6,0.4,1.1,1,1.1s1-0.5,1-1.1v-6.4h2c0.6,0,1-0.5,1-1.1c0-0.6-0.4-1.1-1-1.1h-2V8.2z"/>
</svg>
