<?xml version="1.0" encoding="utf-8"?>
<!-- Generator: Adobe Illustrator 24.1.1, SVG Export Plug-In . SVG Version: 6.00 Build 0)  -->
<svg version="1.1" id="Layer_1" xmlns="http://www.w3.org/2000/svg" xmlns:xlink="http://www.w3.org/1999/xlink" x="0px" y="0px"
	 viewBox="0 0 21 21" style="enable-background:new 0 0 21 21;" xml:space="preserve">
<style type="text/css">
	.st0{fill:#FFFFFF;}
	.st1{fill:#907C6A;}
</style>
<path class="st0" d="M0,3.2C0,1.4,1.4,0,3.2,0h14.7C19.6,0,21,1.4,21,3.2v14.7c0,1.7-1.4,3.1-3.1,3.1H3.2C1.4,21,0,19.6,0,17.9V3.2z
	"/>
<path class="st1" d="M10.6,2.2C6,2.2,2.2,6,2.2,10.5c0,1.5,0.5,3,1.2,4.2l-1.2,4.1l4.1-1.1c1.2,0.8,2.6,1.1,4.1,1.1
	c4.5,0,8.3-3.8,8.3-8.3C18.9,6,15.1,2.2,10.6,2.2z M7.7,6.6c0.2,0,0.3,0,0.5,0c0.2,0,0.3,0,0.5,0.3c0.2,0.5,0.6,1.4,0.6,1.5
	s0.2,0.2,0,0.3c0,0.2-0.2,0.2-0.2,0.3C8.9,9.3,8.8,9.4,8.8,9.6C8.6,9.7,8.5,9.7,8.6,10c0.2,0.2,0.6,0.9,1.2,1.4
	c0.8,0.8,1.5,0.9,1.7,1.1c0.2,0.2,0.3,0.2,0.5,0s0.5-0.6,0.6-0.8c0.2-0.2,0.3-0.2,0.5-0.2s1.2,0.6,1.4,0.6c0.2,0.2,0.3,0.2,0.5,0.3
	c0,0.2,0,0.5-0.2,0.9s-1.1,0.9-1.4,0.9c-0.5,0-0.8,0.2-2.4-0.5c-2.1-0.8-3.5-3-3.5-3.2c-0.2-0.2-0.9-1.1-0.9-2.1S7.1,7,7.2,6.9
	C7.4,6.7,7.5,6.6,7.7,6.6z"/>
</svg>
