<?xml version="1.0" encoding="utf-8"?>
<!-- Generator: Adobe Illustrator 24.1.1, SVG Export Plug-In . SVG Version: 6.00 Build 0)  -->
<svg version="1.1" id="Layer_1" xmlns="http://www.w3.org/2000/svg" xmlns:xlink="http://www.w3.org/1999/xlink" x="0px" y="0px"
	 viewBox="0 0 21 21" style="enable-background:new 0 0 21 21;" xml:space="preserve">
<style type="text/css">
	.st0{fill:#FFFFFF;}
	.st1{fill:#907C6A;}
</style>
<path class="st0" d="M4,0h13c2.2,0,4,1.8,4,4v13c0,2.2-1.8,4-4,4H4c-2.2,0-4-1.8-4-4V4C0,1.8,1.8,0,4,0z"/>
<path class="st1" d="M4.1,8.1C4.2,7,5,6.2,6,6.1C7.1,6.1,8.6,6,10.5,6c1.9,0,3.4,0.1,4.5,0.1c1,0.1,1.8,0.9,1.9,1.9
	c0.1,0.8,0.1,1.7,0.1,2.4c0,0.7-0.1,1.6-0.1,2.4c-0.1,1-0.9,1.9-1.9,1.9c-1.1,0.1-2.6,0.1-4.5,0.1c-1.9,0-3.4-0.1-4.5-0.1
	c-1-0.1-1.8-0.9-1.9-1.9C4.1,12.1,4,11.2,4,10.5C4,9.8,4.1,8.9,4.1,8.1z"/>
<path class="st0" d="M9.9,9.1l1.8,1c0.3,0.2,0.3,0.6,0,0.8l-1.8,1c-0.4,0.2-0.9,0-0.9-0.4v-2C9,9.1,9.5,8.9,9.9,9.1z"/>
</svg>
