<?xml version="1.0" encoding="utf-8"?>
<!-- Generator: Adobe Illustrator 24.1.1, SVG Export Plug-In . SVG Version: 6.00 Build 0)  -->
<svg version="1.1" id="Layer_1" xmlns="http://www.w3.org/2000/svg" xmlns:xlink="http://www.w3.org/1999/xlink" x="0px" y="0px"
	 viewBox="0 0 21 21" style="enable-background:new 0 0 21 21;" xml:space="preserve">
<style type="text/css">
	.st0{fill:#FFFFFF;}
	.st1{fill:#907C6A;}
</style>
<path class="st0" d="M0,3.2C0,1.4,1.4,0,3.2,0h14.7C19.6,0,21,1.4,21,3.2v14.7c0,1.7-1.4,3.1-3.1,3.1H3.2C1.4,21,0,19.6,0,17.9V3.2z
	"/>
<path class="st1" d="M10.5,5C7.5,5,5,7.5,5,10.5c0,1,0.3,2,0.8,2.8L5,16l2.7-0.7c0.8,0.5,1.7,0.7,2.7,0.7c3,0,5.5-2.5,5.5-5.5
	C16,7.5,13.5,5,10.5,5z M8.6,7.9c0.1,0,0.2,0,0.3,0c0.1,0,0.2,0,0.3,0.2c0.1,0.3,0.4,0.9,0.4,1c0,0.1,0.1,0.1,0,0.2
	c0,0.1-0.1,0.1-0.1,0.2C9.4,9.7,9.3,9.8,9.3,9.9C9.2,10,9.1,10,9.2,10.2c0.1,0.1,0.4,0.6,0.8,0.9c0.5,0.5,1,0.6,1.1,0.7
	c0.1,0.1,0.2,0.1,0.3,0c0.1-0.1,0.3-0.4,0.4-0.5c0.1-0.1,0.2-0.1,0.3-0.1c0.1,0,0.8,0.4,0.9,0.4c0.1,0.1,0.2,0.1,0.3,0.2
	c0,0.1,0,0.3-0.1,0.6c-0.1,0.3-0.7,0.6-0.9,0.6c-0.3,0-0.5,0.1-1.6-0.3c-1.4-0.5-2.3-2-2.3-2.1c-0.1-0.1-0.6-0.7-0.6-1.4
	c0-0.7,0.4-1,0.5-1.1C8.4,8,8.5,7.9,8.6,7.9z"/>
</svg>
