<?xml version="1.0" encoding="utf-8"?>
<!-- Generator: Adobe Illustrator 24.1.1, SVG Export Plug-In . SVG Version: 6.00 Build 0)  -->
<svg version="1.1" id="Layer_1" xmlns="http://www.w3.org/2000/svg" xmlns:xlink="http://www.w3.org/1999/xlink" x="0px" y="0px"
	 viewBox="0 0 20 20" style="enable-background:new 0 0 20 20;" xml:space="preserve">
<style type="text/css">
	.st0{fill:#FFFFFF;}
	.st1{fill:#907C6A;}
</style>
<path class="st0" d="M4,0h12c2.2,0,4,1.8,4,4v12c0,2.2-1.8,4-4,4H4c-2.2,0-4-1.8-4-4V4C0,1.8,1.8,0,4,0z"/>
<path class="st1" d="M14.1,8.3C14.3,12,11.7,15,8.3,15c-1.2,0-2.3-0.2-3.2-0.6C4.9,14.3,5,14,5.2,14c1.1-0.1,2-0.4,2.6-1
	c1.4-1.5,1.7-2,2-4C9.8,8.8,9.8,8.5,9.8,8.3c0-1.2,1-2.3,2.1-2.3c0.7,0,1.4,0.4,1.8,1l0.8-0.1c0.2,0,0.3,0.2,0.2,0.4L14.1,8.3z"/>
<path class="st1" d="M7.8,13c-2.6-0.9-3-4.3-2.6-6c0.1-0.2,0.3-0.2,0.4,0C6.5,8.4,8,9.2,9.9,9C12.9,9,12.1,14.5,7.8,13z"/>
</svg>
