<?xml version="1.0" encoding="utf-8"?>
<!-- Generator: Adobe Illustrator 24.1.1, SVG Export Plug-In . SVG Version: 6.00 Build 0)  -->
<svg version="1.1" id="Layer_1" xmlns="http://www.w3.org/2000/svg" xmlns:xlink="http://www.w3.org/1999/xlink" x="0px" y="0px"
	 viewBox="0 0 20 20" style="enable-background:new 0 0 20 20;" xml:space="preserve">
<style type="text/css">
	.st0{fill:none;stroke:#907C6A;stroke-width:1.0541;}
	.st1{fill:none;stroke:#907C6A;stroke-width:0.7027;}
	.st2{fill:#907C6A;stroke:#907C6A;stroke-width:1.0541;}
</style>
<g>
	<path class="st0" d="M3.5,6.5c0-1.6,1.3-3,3-3h7c1.6,0,3,1.3,3,3v7c0,1.6-1.3,3-3,3H6.5c-1.6,0-3-1.3-3-3L3.5,6.5L3.5,6.5z
		 M10,12.7c1.5,0,2.7-1.2,2.7-2.7S11.4,7.4,10,7.4S7.3,8.6,7.3,10C7.4,11.5,8.5,12.7,10,12.7z"/>
	<path class="st1" d="M14.5,5.8c0,0.2-0.1,0.4-0.4,0.4c-0.2,0-0.4-0.1-0.4-0.4s0.1-0.4,0.4-0.4C14.4,5.5,14.5,5.6,14.5,5.8z"/>
	<path class="st2" d="M13,10c0,1.6-1.3,3-3,3s-3-1.4-3-3s1.3-3,3-3C11.6,7.1,13,8.4,13,10z M10,12.7c1.5,0,2.7-1.2,2.7-2.7
		S11.4,7.4,10,7.4S7.3,8.6,7.3,10C7.4,11.5,8.5,12.7,10,12.7z"/>
</g>
</svg>
