<?xml version="1.0" encoding="utf-8"?>
<!-- Generator: Adobe Illustrator 24.1.1, SVG Export Plug-In . SVG Version: 6.00 Build 0)  -->
<svg version="1.1" id="Layer_1" xmlns="http://www.w3.org/2000/svg" xmlns:xlink="http://www.w3.org/1999/xlink" x="0px" y="0px"
	 viewBox="0 0 20 20" style="enable-background:new 0 0 20 20;" xml:space="preserve">
<style type="text/css">
	.st0{fill:#FFFFFF;}
	.st1{fill-rule:evenodd;clip-rule:evenodd;fill:#FFFFFF;}
	.st2{fill:url(#SVGID_1_);}
	.st3{fill:none;stroke:#F9F6F4;stroke-width:0.2046;stroke-miterlimit:10;}
	.st4{fill:none;stroke:#FFFFFF;stroke-width:0.2046;stroke-miterlimit:10;}
	.st5{fill:none;stroke:#FCFBFA;stroke-width:0.2046;stroke-miterlimit:10;}
	.st6{fill:none;stroke:#FCFCFC;stroke-width:0.2046;stroke-miterlimit:10;}
</style>
<path class="st0" d="M0,3c0-1.7,1.3-3,3-3h14c1.7,0,3,1.3,3,3v14c0,1.7-1.3,3-3,3H3c-1.7,0-3-1.3-3-3V3z"/>
<path class="st1" d="M7,7C6.7,7,6.4,7.3,6.4,7.6S6.7,8.2,7,8.2h6c0.3,0,0.6-0.3,0.6-0.6S13.3,7,13,7H7z M7,9.4
	c-0.3,0-0.6,0.3-0.6,0.6c0,0.3,0.3,0.6,0.6,0.6h2.4c0.3,0,0.6-0.3,0.6-0.6c0-0.3-0.3-0.6-0.6-0.6H7z"/>
<linearGradient id="SVGID_1_" gradientUnits="userSpaceOnUse" x1="3.7281" y1="9.2387" x2="16" y2="9.2387">
	<stop  offset="0" style="stop-color:#9B2226"/>
	<stop  offset="1" style="stop-color:#BB3E03"/>
</linearGradient>
<path class="st2" d="M15.8,5H3.9C3.8,5,3.7,5,3.7,5.1v8.2c0,0.1,0.1,0.2,0.2,0.2h11.9c0.1,0,0.2-0.1,0.2-0.2V5.1C16,5,15.9,5,15.8,5
	z"/>
<path class="st3" d="M11.9,9.2c0,1.1-0.9,2-2,2c-1.1,0-2-0.9-2-2s0.9-2,2-2S11.9,8.1,11.9,9.2z"/>
<path class="st4" d="M7.4,9.3L7.4,9.3c0.1,1.3,1.2,2.3,2.5,2.3c1.2-0.1,2.2-1,2.2-2.2l0.1,0l3.2,3.9H4.3L7.4,9.3z"/>
<polygon class="st5" points="4.1,12.9 4.1,7.7 7.1,9.2 "/>
<polygon class="st4" points="12.6,9.2 15.7,7.7 15.7,12.9 "/>
<path class="st6" d="M4.1,5.3h11.6v2L12.2,9c-0.1-1.3-1.3-2.2-2.6-2.1C8.5,7,7.6,7.9,7.5,9L4.1,7.3V5.3z"/>
<path class="st0" d="M8.4,9.2c0,0.8,0.7,1.5,1.5,1.5c0.1,0,0.2-0.1,0.2-0.2s-0.1-0.2-0.2-0.2c-0.6,0-1.2-0.5-1.2-1.2
	c0-0.3,0.1-0.6,0.4-0.8c0.2-0.2,0.5-0.3,0.9-0.3c0.6,0,1.1,0.6,1.1,1.2v0.5c0,0.1-0.1,0.2-0.2,0.2c-0.1,0-0.2-0.1-0.2-0.2V9.2
	c0-0.5-0.4-0.8-0.8-0.8S9,8.8,9,9.2c0,0.5,0.4,0.8,0.8,0.8c0.2,0,0.4-0.1,0.5-0.2c0.1,0.3,0.3,0.4,0.6,0.4c0.2-0.1,0.4-0.3,0.4-0.5
	V9.3c0-0.8-0.6-1.5-1.4-1.5C9.1,7.7,8.4,8.4,8.4,9.2C8.4,9.2,8.4,9.2,8.4,9.2z M9.9,9.7c-0.3,0-0.5-0.2-0.5-0.5
	c0-0.3,0.2-0.5,0.5-0.5s0.5,0.2,0.5,0.5C10.4,9.5,10.1,9.7,9.9,9.7z"/>
</svg>
