<?xml version="1.0" encoding="utf-8"?>
<!-- Generator: Adobe Illustrator 24.1.1, SVG Export Plug-In . SVG Version: 6.00 Build 0)  -->
<svg version="1.1" id="Layer_1" xmlns="http://www.w3.org/2000/svg" xmlns:xlink="http://www.w3.org/1999/xlink" x="0px" y="0px"
	 viewBox="0 0 20 20" style="enable-background:new 0 0 20 20;" xml:space="preserve">
<style type="text/css">
	.st0{fill:#FFFFFF;}
	.st1{fill:url(#SVGID_1_);}
	.st2{fill:url(#SVGID_2_);}
	.st3{fill:url(#SVGID_3_);}
	.st4{fill:url(#SVGID_4_);}
	.st5{fill:url(#SVGID_5_);}
</style>
<path class="st0" d="M0,3c0-1.7,1.3-3,3-3h14c1.7,0,3,1.3,3,3v14c0,1.7-1.3,3-3,3H3c-1.7,0-3-1.3-3-3V3z"/>
<g>
	<linearGradient id="SVGID_1_" gradientUnits="userSpaceOnUse" x1="10.0292" y1="6.1995" x2="10.0292" y2="13.6836">
		<stop  offset="0" style="stop-color:#9B2226"/>
		<stop  offset="1" style="stop-color:#BB3E03"/>
	</linearGradient>
	<path class="st1" d="M12.2,13.7H7.9c-0.2,0-0.4-0.2-0.4-0.4V6.6c0-0.2,0.2-0.4,0.4-0.4h4.3c0.2,0,0.4,0.2,0.4,0.4v6.6
		C12.6,13.5,12.4,13.7,12.2,13.7z"/>
	<g>
		<linearGradient id="SVGID_2_" gradientUnits="userSpaceOnUse" x1="10.0585" y1="4.6792" x2="10.0585" y2="15.3208">
			<stop  offset="0" style="stop-color:#9B2226"/>
			<stop  offset="1" style="stop-color:#BB3E03"/>
		</linearGradient>
		<path class="st2" d="M12.3,15.3H7.7c-0.3,0-0.5-0.2-0.5-0.5V5.1c0-0.3,0.2-0.5,0.5-0.5h4.6c0.3,0,0.5,0.2,0.5,0.5v9.6
			c0,0.1-0.1,0.2-0.1,0.4C12.6,15.3,12.5,15.3,12.3,15.3z M7.7,5C7.6,5,7.6,5.1,7.6,5.2v9.6C7.6,15,7.6,15,7.7,15h4.6
			c0.1,0,0.2-0.1,0.2-0.2V5.2c0-0.1-0.1-0.2-0.2-0.2L7.7,5L7.7,5z"/>
		<linearGradient id="SVGID_3_" gradientUnits="userSpaceOnUse" x1="10.0292" y1="5.3809" x2="10.0292" y2="14.5022">
			<stop  offset="0" style="stop-color:#9B2226"/>
			<stop  offset="1" style="stop-color:#BB3E03"/>
		</linearGradient>
		<path class="st3" d="M7.5,13.3h5.1v0.4H7.5V13.3z M7.5,6.2h5.1v0.3H7.5V6.2z M9.2,5.4h1.8v0.4H9.2V5.4z M9.8,14.2h0.4v0.4H9.8
			V14.2z"/>
		<g>
			<linearGradient id="SVGID_4_" gradientUnits="userSpaceOnUse" x1="10" y1="7.7781" x2="10" y2="12.3388">
				<stop  offset="0" style="stop-color:#9B2226"/>
				<stop  offset="1" style="stop-color:#BB3E03"/>
			</linearGradient>
			<path class="st4" d="M14.3,9.9h1.1v0.4h-1.1V9.9z M14.8,7.8l0.1,0.3l-1,0.5l-0.1-0.3L14.8,7.8z M14,11.6l1,0.5l-0.2,0.3l-1-0.5
				L14,11.6z M4.7,9.9h1.1v0.4H4.7V9.9z"/>
			<g>
				<linearGradient id="SVGID_5_" gradientUnits="userSpaceOnUse" x1="5.644" y1="7.7781" x2="5.644" y2="12.3388">
					<stop  offset="0" style="stop-color:#9B2226"/>
					<stop  offset="1" style="stop-color:#BB3E03"/>
				</linearGradient>
				<path class="st5" d="M6.1,11.6l0.1,0.3l-0.9,0.5L5.1,12L6.1,11.6z M5.2,7.8l1,0.5L6.1,8.5l-1-0.5L5.2,7.8z"/>
			</g>
		</g>
	</g>
</g>
</svg>
