<?xml version="1.0" encoding="utf-8"?>
<!-- Generator: Adobe Illustrator 24.1.1, SVG Export Plug-In . SVG Version: 6.00 Build 0)  -->
<svg version="1.1" id="Layer_1" xmlns="http://www.w3.org/2000/svg" xmlns:xlink="http://www.w3.org/1999/xlink" x="0px" y="0px"
	 viewBox="0 0 20 20" style="enable-background:new 0 0 20 20;" xml:space="preserve">
<style type="text/css">
	.st0{fill:#FFFFFF;}
	.st1{fill:#907C6A;}
</style>
<path class="st0" d="M0,3c0-1.7,1.3-3,3-3h14c1.7,0,3,1.3,3,3v14c0,1.7-1.3,3-3,3H3c-1.7,0-3-1.3-3-3V3z"/>
<path class="st1" d="M7.8,10c0,1.2,1,2.2,2.2,2.2c0.1,0,0.3-0.1,0.3-0.3c0-0.1-0.1-0.2-0.3-0.2c-0.9,0-1.7-0.8-1.7-1.7
	c0-0.5,0.2-0.9,0.5-1.2c0.3-0.3,0.8-0.5,1.3-0.5c0.9,0.1,1.7,0.8,1.6,1.8v0.7c0,0.1-0.1,0.3-0.3,0.3c-0.1,0-0.2-0.1-0.3-0.3V10
	c0-0.7-0.5-1.2-1.2-1.2S8.8,9.3,8.8,10s0.5,1.2,1.2,1.2c0.3,0,0.5-0.1,0.7-0.3c0.1,0.4,0.5,0.6,0.9,0.5c0.3-0.1,0.6-0.4,0.6-0.7V10
	c0-1.2-0.9-2.2-2.1-2.2C8.9,7.8,7.9,8.7,7.8,10C7.8,9.9,7.8,10,7.8,10z M10,10.7c-0.4,0-0.7-0.3-0.7-0.7c0-0.4,0.3-0.7,0.7-0.7
	c0.4,0,0.7,0.3,0.7,0.7S10.4,10.7,10,10.7z"/>
<path class="st1" d="M18.7,3.7H1.3C1.1,3.7,1,3.9,1,4v12c0,0.1,0.1,0.2,0.3,0.3h17.5c0.1,0,0.2-0.1,0.3-0.3V4
	C19,3.9,18.9,3.7,18.7,3.7z M12.9,10c0,1.6-1.3,3-3,3c-1.6,0-3-1.3-3-3s1.3-3,3-3S12.9,8.4,12.9,10z M6.4,10.1l0.1,0.1
	c0.1,1.9,1.7,3.4,3.6,3.3c1.8-0.1,3.2-1.5,3.3-3.3l0.1-0.1l4.7,5.6H1.8L6.4,10.1z M1.5,15.3V7.7L6,9.9C6,9.9,1.5,15.3,1.5,15.3z
	 M14,9.9l4.5-2.2v7.6L14,9.9z M1.5,4.2h17v2.9l-5.1,2.4c-0.2-1.9-1.9-3.3-3.8-3C8,6.7,6.7,8,6.6,9.6L1.5,7.2V4.2z"/>
</svg>
