<?xml version="1.0" encoding="utf-8"?>
<!-- Generator: Adobe Illustrator 24.1.1, SVG Export Plug-In . SVG Version: 6.00 Build 0)  -->
<svg version="1.1" id="Layer_1" xmlns="http://www.w3.org/2000/svg" xmlns:xlink="http://www.w3.org/1999/xlink" x="0px" y="0px"
	 viewBox="0 0 20 20" style="enable-background:new 0 0 20 20;" xml:space="preserve">
<style type="text/css">
	.st0{fill:#907C6A;}
	.st1{fill-rule:evenodd;clip-rule:evenodd;fill:#907C6A;}
</style>
<g>
	<path class="st0" d="M10.3,10.1L10.3,10.1h0.1l0,0v0.1l0,0h-0.1l0,0V10.1z"/>
	<path class="st1" d="M10.3,10.1L10.3,10.1C10.3,10.1,10.3,10.1,10.3,10.1C10.3,10.1,10.3,10.1,10.3,10.1
		C10.3,10.1,10.3,10.1,10.3,10.1L10.3,10.1L10.3,10.1L10.3,10.1L10.3,10.1L10.3,10.1L10.3,10.1L10.3,10.1
		C10.4,10.1,10.4,10.1,10.3,10.1C10.4,10.1,10.4,10.1,10.3,10.1C10.4,10.1,10.3,10.1,10.3,10.1z"/>
	<path class="st1" d="M10.3,10.1L10.3,10.1L10.3,10.1L10.3,10.1C10.4,10.1,10.4,10.1,10.3,10.1C10.4,10.1,10.4,10.1,10.3,10.1
		L10.3,10.1z M10.3,10.1L10.3,10.1L10.3,10.1L10.3,10.1C10.4,10.1,10.4,10.1,10.3,10.1C10.4,10.1,10.4,10.1,10.3,10.1L10.3,10.1z"/>
	<path class="st0" d="M6.7,8.1h8.5c0.3,0,0.5,0.1,0.7,0.3c0.2,0.2,0.3,0.5,0.3,0.7v5.3c0,0.3-0.1,0.5-0.3,0.7
		c-0.2,0.2-0.4,0.3-0.7,0.3H6.4l0.1-0.3v-0.1v-0.1V8.5V8.5V8.4L6.4,8.1H6.7z M15.2,8.6H7V15h8.2c0.1,0,0.3-0.1,0.3-0.1
		c0.1-0.1,0.1-0.2,0.1-0.4V9.1c0-0.1-0.1-0.3-0.1-0.4C15.5,8.7,15.4,8.6,15.2,8.6L15.2,8.6z"/>
	<path class="st0" d="M5.2,7.1h0.3c0.4,0,0.8,0.1,1,0.5c0.3,0.3,0.4,0.7,0.4,1.1v6.6c0,0.4-0.1,0.8-0.4,1.1s-0.6,0.5-1,0.5H5.2
		c-0.4,0-0.8-0.1-1-0.5C4,16,3.8,15.6,3.8,15.2V8.5c0-0.4,0.1-0.8,0.4-1.1C4.5,7.2,4.8,7.1,5.2,7.1L5.2,7.1z M5.5,7.5H5.2
		C5,7.5,4.8,7.7,4.6,7.8C4.4,8,4.3,8.2,4.3,8.5V15c0,0.3,0.1,0.5,0.3,0.7C4.8,15.9,5,16,5.2,16h0.3c0.3,0,0.5-0.1,0.7-0.3
		c0.2-0.2,0.3-0.4,0.3-0.7V8.5c0-0.3-0.1-0.5-0.3-0.7C6,7.7,5.8,7.5,5.5,7.5L5.5,7.5z M8.8,3.3h5.3v5.3H8.5V3.3H8.8L8.8,3.3z
		 M13.6,3.8H9.1v4.2h4.5V3.8L13.6,3.8z"/>
	<path class="st0" d="M10.1,4.4c-0.1,0-0.3,0.1-0.3,0.3c0,0.1,0.1,0.3,0.3,0.3h2.4c0.1,0,0.3-0.1,0.3-0.3c0-0.1-0.1-0.3-0.3-0.3
		H10.1z M10.1,5.7C10,5.7,9.9,5.8,9.9,6s0.1,0.3,0.3,0.3h2.4c0.1,0,0.3-0.1,0.3-0.3c0-0.1-0.1-0.3-0.3-0.3H10.1L10.1,5.7z M10.1,7.1
		c-0.1,0-0.3,0.1-0.3,0.3c0,0.1,0.1,0.3,0.3,0.3h2.4c0.1,0,0.3-0.1,0.3-0.3s-0.1-0.3-0.3-0.3H10.1L10.1,7.1z M8.9,9.1h4.8
		c0.1,0,0.3,0.1,0.4,0.1c0.1,0.1,0.1,0.2,0.1,0.4v0.8c0,0.1-0.1,0.3-0.1,0.4C14,10.9,13.9,11,13.7,11H8.9c-0.1,0-0.3-0.1-0.4-0.1
		c-0.1-0.1-0.1-0.2-0.1-0.4V9.7c0-0.1,0.1-0.3,0.1-0.4C8.7,9.2,8.8,9.1,8.9,9.1L8.9,9.1z M13.7,9.7L13.7,9.7L13.7,9.7L13.7,9.7
		L13.7,9.7L13.7,9.7L13.7,9.7L13.7,9.7H8.9l0,0l0,0l0,0l0,0l0,0l0,0l0,0l0,0l0,0l0,0l0,0l0,0l0,0l0,0v0.8l0,0l0,0l0,0l0,0l0,0l0,0
		l0,0l0,0l0,0l0,0l0,0l0,0l0,0h4.8l0,0l0,0l0,0l0,0l0,0l0,0l0,0l0,0l0,0l0,0l0,0V9.7L13.7,9.7z"/>
	<g id="_393283648">
		<path id="_393285784" class="st1" d="M8.8,11.8h0.5v0.5H8.8V11.8z"/>
		<path id="_393280840" class="st1" d="M10.3,11.8h0.5v0.5h-0.5V11.8z"/>
		<path id="_393286216" class="st1" d="M11.8,11.8h0.5v0.5h-0.5V11.8z"/>
		<path id="_393282856" class="st1" d="M13.3,11.8h0.5v0.5h-0.5V11.8z"/>
		<path id="_393284824" class="st1" d="M8.8,12.8h0.5v0.5H8.8V12.8z"/>
		<path id="_393280768" class="st1" d="M10.3,12.8h0.5v0.5h-0.5V12.8z"/>
		<path id="_393275488" class="st1" d="M11.8,12.8h0.5v0.5h-0.5V12.8z"/>
		<path id="_393276592" class="st1" d="M13.3,12.8h0.5v0.5h-0.5V12.8z"/>
		<path id="_393288760" class="st1" d="M8.8,13.9h0.5v0.5H8.8V13.9z"/>
		<path id="_393284344" class="st1" d="M10.3,13.9h0.5v0.5h-0.5V13.9z"/>
		<path id="_393283000" class="st1" d="M11.8,13.9h0.5v0.5h-0.5V13.9z"/>
		<path id="_393284032" class="st1" d="M13.3,13.9h0.5v0.5h-0.5V13.9z"/>
	</g>
</g>
</svg>
