<?xml version="1.0" encoding="utf-8"?>
<!-- Generator: Adobe Illustrator 24.1.1, SVG Export Plug-In . SVG Version: 6.00 Build 0)  -->
<svg version="1.1" id="Layer_1" xmlns="http://www.w3.org/2000/svg" xmlns:xlink="http://www.w3.org/1999/xlink" x="0px" y="0px"
	 viewBox="0 0 20 20" style="enable-background:new 0 0 20 20;" xml:space="preserve">
<style type="text/css">
	.st0{fill:#FFFFFF;}
	.st1{fill:#907C6A;}
</style>
<path class="st0" d="M0,3c0-1.7,1.3-3,3-3h14c1.7,0,3,1.3,3,3v14c0,1.7-1.3,3-3,3H3c-1.7,0-3-1.3-3-3V3z"/>
<g>
	<path class="st1" d="M13.9,19.1H6.1c-0.5,0-0.8-0.4-0.8-0.8V1.7c0-0.5,0.4-0.8,0.8-0.8h7.9c0.5,0,0.8,0.4,0.8,0.8v16.5
		c0,0.2-0.1,0.4-0.2,0.6C14.4,19,14.2,19.1,13.9,19.1z M6.1,1.5c-0.2,0-0.3,0.1-0.3,0.3v16.5c0,0.2,0.1,0.3,0.3,0.3h7.9
		c0.2,0,0.3-0.1,0.3-0.3l0-16.5c0-0.2-0.1-0.3-0.3-0.3L6.1,1.5L6.1,1.5z"/>
	<path class="st1" d="M5.6,15.7h8.8v0.6H5.6V15.7z M5.6,3.5h8.8V4H5.6V3.5z M8.5,2.1h3v0.6h-3V2.1z M9.6,17.1h0.7v0.6H9.6V17.1z"/>
	<g>
		<path class="st1" d="M17.3,9.8h1.8v0.6h-1.8L17.3,9.8z M18.2,6.2l0.2,0.5l-1.7,0.8l-0.2-0.5L18.2,6.2z M16.8,12.7l1.7,0.8L18.2,14
			l-1.7-0.8L16.8,12.7z M0.8,9.8h1.8v0.6H0.8V9.8z"/>
		<g>
			<path class="st1" d="M3.2,12.7l0.2,0.5L1.8,14l-0.2-0.5L3.2,12.7z M1.8,6.2l1.7,0.8L3.2,7.5L1.5,6.7L1.8,6.2z"/>
		</g>
	</g>
</g>
</svg>
