<?xml version="1.0" encoding="utf-8"?>
<!-- Generator: Adobe Illustrator 24.1.1, SVG Export Plug-In . SVG Version: 6.00 Build 0)  -->
<svg version="1.1" id="Layer_1" xmlns="http://www.w3.org/2000/svg" xmlns:xlink="http://www.w3.org/1999/xlink" x="0px" y="0px"
	 viewBox="0 0 20 20" style="enable-background:new 0 0 20 20;" xml:space="preserve">
<style type="text/css">
	.st0{fill:#FFFFFF;}
	.st1{fill:#907C6A;}
</style>
<path class="st0" d="M0,3c0-1.7,1.3-3,3-3h14c1.7,0,3,1.3,3,3v14c0,1.7-1.3,3-3,3H3c-1.7,0-3-1.3-3-3V3z"/>
<path class="st1" d="M15,14l-1.1,1.1c0,0-2.8,1.2-6.9-2.8c-4-4-2.8-6.9-2.8-6.9l1.1-1.1C5.8,3.8,6.6,3.9,7,4.5l1,1.4
	c0.3,0.5,0.3,1.1-0.1,1.5L7,8.3c0,0,0,0.8,1.6,2.4c1.6,1.6,2.4,1.6,2.4,1.6l0.9-0.9c0.4-0.4,1-0.4,1.5-0.1l1.4,1
	C15.4,12.7,15.5,13.6,15,14z"/>
<path class="st1" d="M5.3,4.3L5,4.6l2.4,3.2l0.5-0.5c0.4-0.4,0.4-1,0.1-1.5L7,4.5C6.6,3.9,5.8,3.8,5.3,4.3z"/>
<path class="st1" d="M15,14l-0.3,0.3l-3.2-2.4l0.5-0.5c0.4-0.4,1-0.4,1.5-0.1l1.4,1C15.4,12.7,15.5,13.6,15,14z"/>
</svg>
