<?xml version="1.0" encoding="utf-8"?>
<!-- Generator: Adobe Illustrator 24.1.1, SVG Export Plug-In . SVG Version: 6.00 Build 0)  -->
<svg version="1.1" id="Layer_1" xmlns="http://www.w3.org/2000/svg" xmlns:xlink="http://www.w3.org/1999/xlink" x="0px" y="0px"
	 viewBox="0 0 20 20" style="enable-background:new 0 0 20 20;" xml:space="preserve">
<style type="text/css">
	.st0{fill:#FFFFFF;}
	.st1{fill:#907C6A;fill-opacity:0.25;}
	.st2{fill-rule:evenodd;clip-rule:evenodd;fill:#907C6A;fill-opacity:0.25;}
	.st3{fill-rule:evenodd;clip-rule:evenodd;fill:#907C6A;}
</style>
<path class="st0" d="M4,0h12c2.2,0,4,1.8,4,4v12c0,2.2-1.8,4-4,4H4c-2.2,0-4-1.8-4-4V4C0,1.8,1.8,0,4,0z"/>
<path class="st1" d="M13.1,5c-0.3,0-0.6,0.3-0.6,0.6c0,0.3,0.3,0.6,0.6,0.6h2.5c0.3,0,0.6-0.3,0.6-0.6C16.3,5.3,16,5,15.6,5H13.1z"
	/>
<path class="st2" d="M11.3,10.6c0-1.7,1.4-3.1,3.1-3.1s3.1,1.4,3.1,3.1v0.6c0,0.3-0.3,0.6-0.6,0.6h-4.4c0,1,0.8,1.9,1.9,1.9
	c0.4,0,0.8-0.1,1.2-0.4c0.2-0.1,0.4-0.2,0.6-0.2c0.5,0,0.9,0.6,0.5,0.9C16,14.6,15.3,15,14.4,15c-1.7,0-3.1-1.4-3.1-3.1V10.6z
	 M14.4,8.8c-1,0-1.9,0.8-1.9,1.9h3.8C16.3,9.6,15.4,8.8,14.4,8.8z"/>
<path class="st3" d="M3.8,6.3v2.5h3.1c0.7,0,1.3-0.6,1.3-1.3S7.6,6.3,6.9,6.3H3.8z M8.6,9.3c0.5-0.5,0.8-1.1,0.8-1.8
	C9.4,6.1,8.3,5,6.9,5H3.5c-0.6,0-1,0.4-1,1v7.9C2.5,14.5,3,15,3.6,15h3.3c1.7,0,3.1-1.4,3.1-3.1C10,10.8,9.5,9.8,8.6,9.3z M3.8,10
	v3.8h3.1c1,0,1.9-0.8,1.9-1.9S7.9,10,6.9,10H3.8z"/>
</svg>
