<?xml version="1.0" encoding="utf-8"?>
<!-- Generator: Adobe Illustrator 24.1.1, SVG Export Plug-In . SVG Version: 6.00 Build 0)  -->
<svg version="1.1" id="Layer_1" xmlns="http://www.w3.org/2000/svg" xmlns:xlink="http://www.w3.org/1999/xlink" x="0px" y="0px"
	 viewBox="0 0 20 20" style="enable-background:new 0 0 20 20;" xml:space="preserve">
<style type="text/css">
	.st0{fill:#907C6A;}
	.st1{fill-rule:evenodd;clip-rule:evenodd;fill:#907C6A;}
</style>
<g>
	<path class="st0" d="M10.5,10.2C10.5,10.2,10.5,10.2,10.5,10.2l0.2,0c0,0,0,0,0,0v0.2c0,0,0,0,0,0h-0.2c0,0,0,0,0,0V10.2z"/>
	<path class="st1" d="M10.5,10.2C10.5,10.2,10.5,10.2,10.5,10.2C10.5,10.3,10.5,10.3,10.5,10.2C10.5,10.3,10.5,10.3,10.5,10.2
		c0,0.1,0,0.1,0,0.1v0c0,0,0,0,0,0l0,0c0,0,0,0,0,0c0,0,0,0,0,0c0,0,0,0,0,0s0,0,0,0C10.6,10.2,10.6,10.2,10.5,10.2
		C10.6,10.2,10.6,10.2,10.5,10.2C10.6,10.2,10.5,10.2,10.5,10.2z"/>
	<path class="st1" d="M10.5,10.3C10.5,10.3,10.5,10.3,10.5,10.3C10.5,10.3,10.5,10.3,10.5,10.3L10.5,10.3
		C10.6,10.3,10.6,10.3,10.5,10.3C10.6,10.3,10.6,10.3,10.5,10.3L10.5,10.3z M10.5,10.3C10.5,10.3,10.5,10.3,10.5,10.3
		C10.5,10.3,10.5,10.3,10.5,10.3L10.5,10.3C10.6,10.3,10.6,10.3,10.5,10.3C10.6,10.3,10.6,10.3,10.5,10.3L10.5,10.3z"/>
	<path class="st0" d="M5,7.2h12.7c0.4,0,0.8,0.2,1.1,0.5c0.3,0.3,0.4,0.7,0.4,1.1v7.9c0,0.4-0.2,0.8-0.4,1.1
		c-0.3,0.3-0.6,0.5-1.1,0.5H4.6l0.1-0.4c0,0,0-0.1,0-0.1c0,0,0-0.1,0-0.1V7.9c0,0,0-0.1,0-0.1c0,0,0-0.1,0-0.1L4.6,7.2H5z M17.8,8
		H5.5v9.5h12.3c0.2,0,0.4-0.1,0.5-0.2c0.1-0.1,0.2-0.3,0.2-0.6V8.8c0-0.2-0.1-0.4-0.2-0.6C18.2,8.1,18,8,17.8,8L17.8,8z"/>
	<path class="st0" d="M2.9,5.7h0.4c0.6,0,1.2,0.2,1.5,0.7c0.4,0.4,0.6,1,0.6,1.6v9.8c0,0.6-0.2,1.2-0.6,1.6
		c-0.4,0.4-0.9,0.7-1.5,0.7H2.9c-0.6,0-1.2-0.2-1.5-0.7c-0.4-0.4-0.6-1-0.6-1.6V7.9c0-0.6,0.2-1.2,0.6-1.6C1.8,5.9,2.3,5.7,2.9,5.7
		L2.9,5.7z M3.3,6.4H2.9c-0.4,0-0.7,0.2-1,0.4c-0.3,0.3-0.4,0.6-0.4,1v9.8c0,0.4,0.2,0.7,0.4,1c0.3,0.3,0.6,0.4,1,0.4h0.4
		c0.4,0,0.7-0.2,1-0.4c0.3-0.3,0.4-0.6,0.4-1V7.9c0-0.4-0.2-0.7-0.4-1C4,6.6,3.7,6.4,3.3,6.4L3.3,6.4z M8.2,0.1h7.9V8H7.8V0.1
		L8.2,0.1L8.2,0.1z M15.3,0.9H8.6v6.3h6.7V0.9L15.3,0.9z"/>
	<path class="st0" d="M10.2,1.7c-0.2,0-0.4,0.2-0.4,0.4c0,0.2,0.2,0.4,0.4,0.4h3.6c0.2,0,0.4-0.2,0.4-0.4S14,1.7,13.8,1.7H10.2z
		 M10.2,3.7c-0.2,0-0.4,0.2-0.4,0.4c0,0.2,0.2,0.4,0.4,0.4h3.6c0.2,0,0.4-0.2,0.4-0.4c0-0.2-0.2-0.4-0.4-0.4L10.2,3.7L10.2,3.7z
		 M10.2,5.7c-0.2,0-0.4,0.2-0.4,0.4c0,0.2,0.2,0.4,0.4,0.4h3.6c0.2,0,0.4-0.2,0.4-0.4S14,5.7,13.8,5.7L10.2,5.7L10.2,5.7z M8.4,8.8
		h7.1c0.2,0,0.4,0.1,0.6,0.2c0.1,0.1,0.2,0.3,0.2,0.6v1.2c0,0.2-0.1,0.4-0.2,0.6c-0.1,0.1-0.3,0.2-0.6,0.2H8.4
		c-0.2,0-0.4-0.1-0.6-0.2c-0.1-0.1-0.2-0.3-0.2-0.6V9.6c0-0.2,0.1-0.4,0.2-0.6C8,8.9,8.2,8.8,8.4,8.8L8.4,8.8z M15.5,9.6L15.5,9.6
		L15.5,9.6C15.5,9.6,15.5,9.6,15.5,9.6C15.5,9.6,15.5,9.6,15.5,9.6L15.5,9.6L15.5,9.6C15.5,9.6,15.5,9.6,15.5,9.6H8.4c0,0,0,0,0,0v0
		h0h0v0l0,0c0,0,0,0,0,0c0,0,0,0,0,0l0,0h0v0l0,0h0c0,0,0,0,0,0v1.2c0,0,0,0,0,0h0l0,0v0h0l0,0c0,0,0,0,0,0c0,0,0,0,0,0l0,0v0l0,0h0
		c0,0,0,0,0,0h7.1c0,0,0,0,0,0v0l0,0c0,0,0,0,0,0c0,0,0,0,0,0l0,0h0v0v0h0c0,0,0,0,0,0L15.5,9.6C15.5,9.6,15.5,9.6,15.5,9.6z"/>
	<g id="_393283648">
		<path id="_393285784" class="st1" d="M8.2,12.8H9v0.8H8.2V12.8z"/>
		<path id="_393280840" class="st1" d="M10.4,12.8h0.8v0.8h-0.8V12.8z"/>
		<path id="_393286216" class="st1" d="M12.7,12.8h0.8v0.8h-0.8V12.8z"/>
		<path id="_393282856" class="st1" d="M15,12.8h0.8v0.8H15V12.8z"/>
		<path id="_393284824" class="st1" d="M8.2,14.3H9v0.8H8.2V14.3z"/>
		<path id="_393280768" class="st1" d="M10.4,14.3h0.8v0.8h-0.8V14.3z"/>
		<path id="_393275488" class="st1" d="M12.7,14.3h0.8v0.8h-0.8V14.3z"/>
		<path id="_393276592" class="st1" d="M15,14.3h0.8v0.8H15V14.3z"/>
		<path id="_393288760" class="st1" d="M8.2,15.9H9v0.8H8.2V15.9z"/>
		<path id="_393284344" class="st1" d="M10.4,15.9h0.8v0.8h-0.8V15.9z"/>
		<path id="_393283000" class="st1" d="M12.7,15.9h0.8v0.8h-0.8V15.9z"/>
		<path id="_393284032" class="st1" d="M15,15.9h0.8v0.8H15V15.9z"/>
	</g>
</g>
</svg>
