<?xml version="1.0" encoding="utf-8"?>
<!-- Generator: Adobe Illustrator 24.1.1, SVG Export Plug-In . SVG Version: 6.00 Build 0)  -->
<svg version="1.1" id="Layer_1" xmlns="http://www.w3.org/2000/svg" xmlns:xlink="http://www.w3.org/1999/xlink" x="0px" y="0px"
	 viewBox="0 0 21 21" style="enable-background:new 0 0 21 21;" xml:space="preserve">
<style type="text/css">
	.st0{fill:#FFFFFF;}
	.st1{fill:#907C6A;}
</style>
<path class="st0" d="M4,0h13c2.2,0,4,1.8,4,4v13c0,2.2-1.8,4-4,4H4c-2.2,0-4-1.8-4-4V4C0,1.8,1.8,0,4,0z"/>
<path class="st1" d="M14.3,8.6c0,2.1-3.8,6.9-3.8,6.9s-3.8-4.8-3.8-6.9c0-2.1,1.7-3.8,3.8-3.8C12.6,4.9,14.3,6.6,14.3,8.6z"/>
<path class="st0" d="M10.5,10.2c-0.9,0-1.6-0.7-1.6-1.6c0-0.9,0.7-1.6,1.6-1.6c0.9,0,1.6,0.7,1.6,1.6C12.1,9.5,11.4,10.2,10.5,10.2z
	"/>
<path class="st1" d="M10.5,4.3c-2.4,0-4.4,2-4.4,4.4c0,2.8,3.7,7.4,3.9,7.5l0.5,0.6l0.5-0.6c0.2-0.2,3.9-4.7,3.9-7.5
	C14.9,6.2,12.9,4.3,10.5,4.3z M10.5,14.8c-1.2-1.5-3.1-4.4-3.1-6.1c0-1.7,1.4-3.1,3.1-3.1c1.7,0,3.1,1.4,3.1,3.1
	C13.6,10.3,11.7,13.2,10.5,14.8z"/>
</svg>
