<?xml version="1.0" encoding="utf-8"?>
<!-- Generator: Adobe Illustrator 24.1.1, SVG Export Plug-In . SVG Version: 6.00 Build 0)  -->
<svg version="1.1" id="Layer_1" xmlns="http://www.w3.org/2000/svg" xmlns:xlink="http://www.w3.org/1999/xlink" x="0px" y="0px"
	 viewBox="0 0 20 20" style="enable-background:new 0 0 20 20;" xml:space="preserve">
<style type="text/css">
	.st0{fill:#FFFFFF;}
	.st1{fill:#907C6A;}
</style>
<path class="st0" d="M16,0H4C1.8,0,0,1.8,0,4v12c0,2.2,1.8,4,4,4h12c2.2,0,4-1.8,4-4V4C20,1.8,18.2,0,16,0z"/>
<path class="st1" d="M10,15c2.8,0,5-2.2,5-5c0-2.8-2.2-5-5-5c-2.8,0-5,2.2-5,5C5,12.8,7.2,15,10,15z"/>
<path class="st0" d="M8.3,14.8c-0.1,0-0.2-0.2-0.1-0.3l1.4-5.2C9.7,9.1,10,8.9,10.3,9c0.3,0.1,0.4,0.4,0.4,0.6l-0.5,2
	c0.6,0.1,1.1,0,1.4-0.2c0.4-0.3,0.6-0.7,0.7-1.2c0.1-0.5-0.1-1.1-0.4-1.5c-0.3-0.4-0.7-0.7-1.4-0.7c-1,0-1.6,0.4-1.9,1
	c-0.3,0.5-0.3,1.3,0,1.9c0.1,0.3,0,0.6-0.2,0.7c-0.3,0.1-0.6,0-0.7-0.2c-0.5-0.9-0.5-2,0-2.9c0.5-0.9,1.4-1.5,2.7-1.5
	c1,0,1.8,0.5,2.2,1.1c0.5,0.6,0.6,1.5,0.6,2.2c-0.1,0.8-0.4,1.5-1.1,2c-0.6,0.4-1.3,0.5-2.2,0.3l-0.6,2.3C9.1,14.9,9,15,8.9,15
	C8.7,14.9,8.5,14.9,8.3,14.8z"/>
</svg>
