<?xml version="1.0" encoding="utf-8"?>
<!-- Generator: Adobe Illustrator 24.1.1, SVG Export Plug-In . SVG Version: 6.00 Build 0)  -->
<svg version="1.1" id="Layer_1" xmlns="http://www.w3.org/2000/svg" xmlns:xlink="http://www.w3.org/1999/xlink" x="0px" y="0px"
	 viewBox="0 0 22 22" style="enable-background:new 0 0 22 22;" xml:space="preserve">
<style type="text/css">
	.st0{fill:#FFFFFF;}
	.st1{fill-rule:evenodd;clip-rule:evenodd;fill:#907C6A;}
</style>
<path class="st0" d="M4,0h14c2.2,0,4,1.8,4,4v14c0,2.2-1.8,4-4,4H4c-2.2,0-4-1.8-4-4V4C0,1.8,1.8,0,4,0z"/>
<path class="st1" d="M11,15c2.2,0,4-1.8,4-4c0-2.2-1.8-4-4-4c-2.2,0-4,1.8-4,4C7,13.2,8.8,15,11,15z M11,16c2.8,0,5-2.2,5-5
	c0-2.8-2.2-5-5-5c-2.8,0-5,2.2-5,5C6,13.8,8.2,16,11,16z"/>
<path class="st1" d="M11.9,14.1c0.4-0.7,0.6-1.8,0.6-3.1c0-1.3-0.3-2.3-0.6-3.1C11.5,7.1,11.1,7,11,7s-0.5,0.1-0.9,0.9
	C9.8,8.7,9.5,9.7,9.5,11c0,1.3,0.3,2.3,0.6,3.1c0.4,0.8,0.8,0.9,0.9,0.9S11.5,14.9,11.9,14.1z M11,16c1.4,0,2.5-2.2,2.5-5
	c0-2.8-1.1-5-2.5-5c-1.4,0-2.5,2.2-2.5,5C8.5,13.8,9.6,16,11,16z"/>
<path class="st1" d="M16,12c0-0.2,0-0.3,0-0.5s0-0.3,0-0.5H6c0,0.2,0,0.3,0,0.5s0,0.3,0,0.5H16z"/>
</svg>
