<?xml version="1.0" encoding="utf-8"?>
<!-- Generator: Adobe Illustrator 24.1.1, SVG Export Plug-In . SVG Version: 6.00 Build 0)  -->
<svg version="1.1" id="Layer_1" xmlns="http://www.w3.org/2000/svg" xmlns:xlink="http://www.w3.org/1999/xlink" x="0px" y="0px"
	 viewBox="0 0 20 20" style="enable-background:new 0 0 20 20;" xml:space="preserve">
<style type="text/css">
	.st0{opacity:0.25;fill:#12131A;enable-background:new    ;}
	.st1{fill:none;stroke:#F9F6F4;stroke-width:0.3005;stroke-miterlimit:10;}
	.st2{fill:none;stroke:#FFFFFF;stroke-width:0.3005;stroke-miterlimit:10;}
	.st3{fill:none;stroke:#FCFBFA;stroke-width:0.3005;stroke-miterlimit:10;}
	.st4{fill:none;stroke:#FCFCFC;stroke-width:0.3005;stroke-miterlimit:10;}
	.st5{fill:#FFFFFF;}
</style>
<g>
	<path class="st0" d="M18.8,3.7H1.4C1.2,3.7,1,3.9,1,4.1v12c0,0.2,0.2,0.2,0.2,0.2h17.6c0.2,0,0.2-0.2,0.2-0.2v-12
		C19.1,3.9,18.9,3.7,18.8,3.7z"/>
	<path class="st1" d="M13,10.1c0,1.6-1.3,2.9-2.9,2.9c-1.6,0-2.9-1.3-2.9-2.9c0-1.6,1.3-2.9,2.9-2.9C11.7,7.2,13,8.5,13,10.1z"/>
	<path class="st2" d="M6.4,10.3L6.4,10.3c0.2,2,1.8,3.4,3.8,3.3c1.8,0,3.3-1.4,3.3-3.3h0.2l4.7,5.6H1.9L6.4,10.3z"/>
	<polygon class="st3" points="1.5,15.3 1.5,7.7 6.1,9.9 	"/>
	<polygon class="st2" points="14,9.9 18.6,7.7 18.6,15.3 	"/>
	<path class="st4" d="M1.5,4.3h17v2.9l-5.1,2.5c-0.2-1.8-1.8-3.3-3.8-3.1C8.1,6.8,6.8,8.1,6.6,9.7L1.5,7.2V4.3z"/>
	<path class="st5" d="M7.9,10.1c0,1.3,0.9,2.2,2.2,2.2c0.2,0,0.2-0.2,0.2-0.2c0-0.2-0.2-0.2-0.2-0.2c-0.9,0-1.6-0.7-1.6-1.6
		C8.4,9.7,8.6,9.4,9,9c0.2-0.5,0.7-0.7,1.1-0.7c0.9,0,1.6,0.9,1.6,1.8v0.7c0,0.2-0.2,0.2-0.2,0.2c-0.2,0-0.2-0.2-0.2-0.2v-0.7
		c0-0.7-0.5-1.3-1.3-1.3s-1.3,0.5-1.3,1.3s0.5,1.3,1.3,1.3c0.2,0,0.5,0,0.7-0.2c0.2,0.4,0.5,0.5,0.9,0.5s0.5-0.4,0.5-0.7v-0.9
		c0-1.3-0.9-2.2-2.2-2.2C9,7.9,7.9,8.8,7.9,10.1L7.9,10.1z M10.1,10.8c-0.4,0-0.7-0.4-0.7-0.7s0.4-0.7,0.7-0.7s0.7,0.4,0.7,0.7
		S10.4,10.8,10.1,10.8z"/>
</g>
</svg>
