<?xml version="1.0" encoding="utf-8"?>
<!-- Generator: Adobe Illustrator 24.1.1, SVG Export Plug-In . SVG Version: 6.00 Build 0)  -->
<svg version="1.1" id="Layer_1" xmlns="http://www.w3.org/2000/svg" xmlns:xlink="http://www.w3.org/1999/xlink" x="0px" y="0px"
	 viewBox="0 0 20 20" style="enable-background:new 0 0 20 20;" xml:space="preserve">
<style type="text/css">
	.st0{fill:#FFFFFF;}
	.st1{fill:#907C6A;}
	.st2{fill:none;stroke:#F9F6F4;stroke-width:0.1658;stroke-miterlimit:10;}
	.st3{fill:none;stroke:#FFFFFF;stroke-width:0.1658;stroke-miterlimit:10;}
	.st4{fill:none;stroke:#FCFBFA;stroke-width:0.1658;stroke-miterlimit:10;}
	.st5{fill:none;stroke:#FCFCFC;stroke-width:0.1658;stroke-miterlimit:10;}
</style>
<path class="st0" d="M0,3c0-1.7,1.3-3,3-3h14c1.7,0,3,1.3,3,3v14c0,1.7-1.3,3-3,3H3c-1.7,0-3-1.3-3-3V3z"/>
<g>
	<path class="st1" d="M14.8,6.5H5.2C5.1,6.5,5,6.6,5,6.7v6.6c0,0.1,0.1,0.1,0.1,0.1h9.7c0.1,0,0.1-0.1,0.1-0.1V6.7
		C15,6.6,14.9,6.5,14.8,6.5z"/>
	<path class="st2" d="M11.6,10c0,0.9-0.7,1.6-1.6,1.6c-0.9,0-1.6-0.7-1.6-1.6c0-0.9,0.7-1.6,1.6-1.6C10.9,8.4,11.6,9.1,11.6,10z"/>
	<path class="st3" d="M8,10.1L8,10.1c0.1,1.1,1,1.9,2.1,1.8c1,0,1.8-0.8,1.8-1.8l0.1,0l2.6,3.1H5.5L8,10.1z"/>
	<polygon class="st4" points="5.3,12.9 5.3,8.7 7.8,9.9 	"/>
	<polygon class="st3" points="12.2,9.9 14.7,8.7 14.7,12.9 	"/>
	<path class="st5" d="M5.3,6.8h9.4v1.6l-2.8,1.4c-0.1-1-1-1.8-2.1-1.7C8.9,8.2,8.2,8.9,8.1,9.8L5.3,8.4V6.8z"/>
	<path class="st0" d="M8.8,10c0,0.7,0.5,1.2,1.2,1.2c0.1,0,0.1-0.1,0.1-0.1c0-0.1-0.1-0.1-0.1-0.1c-0.5,0-0.9-0.4-0.9-0.9
		c0-0.3,0.1-0.5,0.3-0.7C9.5,9.1,9.8,9,10,9c0.5,0,0.9,0.5,0.9,1v0.4c0,0.1-0.1,0.1-0.1,0.1c-0.1,0-0.1-0.1-0.1-0.1V10
		c0-0.4-0.3-0.7-0.7-0.7c-0.4,0-0.7,0.3-0.7,0.7c0,0.4,0.3,0.7,0.7,0.7c0.1,0,0.3,0,0.4-0.1c0.1,0.2,0.3,0.3,0.5,0.3
		c0.2,0,0.3-0.2,0.3-0.4V10c0-0.7-0.5-1.2-1.2-1.2C9.4,8.8,8.8,9.3,8.8,10C8.8,10,8.8,10,8.8,10z M10,10.4c-0.2,0-0.4-0.2-0.4-0.4
		c0-0.2,0.2-0.4,0.4-0.4c0.2,0,0.4,0.2,0.4,0.4C10.4,10.2,10.2,10.4,10,10.4z"/>
</g>
</svg>
