<?xml version="1.0" encoding="utf-8"?>
<!-- Generator: Adobe Illustrator 24.1.1, SVG Export Plug-In . SVG Version: 6.00 Build 0)  -->
<svg version="1.1" id="Layer_1" xmlns="http://www.w3.org/2000/svg" xmlns:xlink="http://www.w3.org/1999/xlink" x="0px" y="0px"
	 viewBox="0 0 20 20" style="enable-background:new 0 0 20 20;" xml:space="preserve">
<style type="text/css">
	.st0{fill:none;stroke:#907C6A;stroke-width:1.5;}
	.st1{fill:none;stroke:#907C6A;}
	.st2{fill:#907C6A;stroke:#907C6A;stroke-width:1.5;}
</style>
<path class="st0" d="M0.8,5c0-2.3,1.9-4.3,4.3-4.3h10c2.3,0,4.3,1.9,4.3,4.3v10c0,2.3-1.9,4.2-4.3,4.2H5c-2.3,0-4.3-1.9-4.3-4.2V5z
	 M10,13.8c2.1,0,3.8-1.7,3.8-3.8c0-2.1-1.7-3.8-3.8-3.8c-2.1,0-3.8,1.7-3.8,3.8C6.3,12.1,7.9,13.8,10,13.8z"/>
<path class="st1" d="M16.5,4c0,0.3-0.2,0.5-0.5,0.5c-0.3,0-0.5-0.2-0.5-0.5c0-0.3,0.2-0.5,0.5-0.5C16.3,3.5,16.5,3.7,16.5,4z"/>
<path class="st2" d="M14.3,10c0,2.3-1.9,4.3-4.3,4.3S5.8,12.3,5.8,10c0-2.3,1.9-4.3,4.3-4.3C12.3,5.8,14.3,7.7,14.3,10z M10,13.8
	c2.1,0,3.8-1.7,3.8-3.8c0-2.1-1.7-3.8-3.8-3.8c-2.1,0-3.8,1.7-3.8,3.8C6.3,12.1,7.9,13.8,10,13.8z"/>
</svg>
