<?xml version="1.0" encoding="utf-8"?>
<!-- Generator: Adobe Illustrator 24.1.1, SVG Export Plug-In . SVG Version: 6.00 Build 0)  -->
<svg version="1.1" id="Layer_1" xmlns="http://www.w3.org/2000/svg" xmlns:xlink="http://www.w3.org/1999/xlink" x="0px" y="0px"
	 viewBox="0 0 20 20" style="enable-background:new 0 0 20 20;" xml:space="preserve">
<style type="text/css">
	.st0{fill:#FFFFFF;}
	.st1{fill:#907C6A;}
</style>
<path class="st0" d="M16.2,0H3.8C1.7,0,0,1.7,0,3.8v12.4C0,18.3,1.7,20,3.8,20h12.4c2.1,0,3.8-1.7,3.8-3.8V3.8C20,1.7,18.3,0,16.2,0
	z"/>
<path class="st1" d="M9.7,15.4c3.2,0,5.7-2.6,5.7-5.7c0-3.2-2.6-5.7-5.7-5.7C6.6,4,4,6.6,4,9.7C4,12.9,6.6,15.4,9.7,15.4z"/>
<path class="st0" d="M12,14.9c-0.2,0.1-0.4,0-0.4-0.2c-0.2-1.3-0.5-2.5-1-3.6c-1.1,0.5-2.4,1.5-4.1,3.1c-0.1,0.1-0.3,0.1-0.4,0
	c-0.2-0.1-0.3-0.3-0.5-0.4c-0.1-0.1-0.1-0.3,0-0.4c1.8-1.7,3.2-2.8,4.5-3.4c-0.2-0.4-0.4-0.8-0.6-1.1C8.1,9.4,6.4,9.6,4.3,9.7
	C4.1,9.7,4,9.6,4,9.4C4,9.2,4,9,4.1,8.8c0-0.1,0.1-0.2,0.3-0.2c1.9-0.1,3.4-0.3,4.7-0.7C8.5,6.9,7.8,6,7,5C6.9,4.9,6.9,4.7,7.1,4.6
	c0.2-0.1,0.4-0.2,0.6-0.3c0.1,0,0.2,0,0.3,0.1c0.8,1,1.5,2,2.2,3.1c1.2-0.5,2.2-1.1,3.2-1.8c0.1-0.1,0.3-0.1,0.4,0
	c0.1,0.1,0.3,0.3,0.4,0.5c0.1,0.1,0.1,0.3-0.1,0.4c-1.1,0.8-2.2,1.5-3.4,2c0.2,0.4,0.4,0.7,0.5,1.1c1.2-0.4,2.4-0.4,3.8-0.5
	c0.1,0,0.3,0.1,0.3,0.3c0,0.1,0,0.2,0,0.3c0,0.1,0,0.2,0,0.3c0,0.1-0.1,0.3-0.3,0.3c-1.3,0-2.4,0.1-3.4,0.4c0.4,1.2,0.8,2.4,1,3.7
	c0,0.1,0,0.2-0.1,0.3C12.4,14.7,12.2,14.9,12,14.9z"/>
</svg>
