<?xml version="1.0" encoding="utf-8"?>
<!-- Generator: Adobe Illustrator 24.1.1, SVG Export Plug-In . SVG Version: 6.00 Build 0)  -->
<svg version="1.1" id="Layer_1" xmlns="http://www.w3.org/2000/svg" xmlns:xlink="http://www.w3.org/1999/xlink" x="0px" y="0px"
	 viewBox="0 0 20 20" style="enable-background:new 0 0 20 20;" xml:space="preserve">
<style type="text/css">
	.st0{fill:#FFFFFF;}
	.st1{fill:#907C6A;}
</style>
<path class="st0" d="M16,0H4C1.8,0,0,1.8,0,4v12c0,2.2,1.8,4,4,4h12c2.2,0,4-1.8,4-4V4C20,1.8,18.2,0,16,0z"/>
<path class="st1" d="M15,10c0,2.8-2.2,5-5,5c-0.7,0-1.4-0.1-2-0.4l-1.4,0.3C6.3,14.9,6,14.7,6,14.4L6,13c-0.6-0.8-1-1.9-1-3
	c0-2.8,2.2-5,5-5C12.8,5,15,7.2,15,10z"/>
<path class="st0" d="M8.8,8.7l-1.3,2c-0.1,0.1,0,0.2,0,0.3c0.1,0.1,0.2,0.1,0.2,0l1-0.7c0.2-0.1,0.3-0.1,0.5,0l1.2,0.8
	c0.2,0.1,0.5,0.1,0.6-0.1l1.3-2c0.1-0.1,0-0.2,0-0.3c-0.1-0.1-0.2-0.1-0.2,0l-1,0.7c-0.2,0.1-0.3,0.1-0.5,0L9.4,8.6
	C9.2,8.4,9,8.5,8.8,8.7z"/>
</svg>
