<?xml version="1.0" encoding="utf-8"?>
<!-- Generator: Adobe Illustrator 24.1.1, SVG Export Plug-In . SVG Version: 6.00 Build 0)  -->
<svg version="1.1" id="Layer_1" xmlns="http://www.w3.org/2000/svg" xmlns:xlink="http://www.w3.org/1999/xlink" x="0px" y="0px"
	 viewBox="0 0 20 20" style="enable-background:new 0 0 20 20;" xml:space="preserve">
<style type="text/css">
	.st0{fill:#FFFFFF;}
	.st1{fill:#907C6A;}
</style>
<path class="st0" d="M0,3c0-1.7,1.3-3,3-3h14c1.7,0,3,1.3,3,3v14c0,1.7-1.3,3-3,3H3c-1.7,0-3-1.3-3-3V3z"/>
<path class="st1" d="M5,6c0.6,0,1-0.4,1-1S5.6,4,5,4S4,4.4,4,5S4.4,6,5,6z"/>
<path class="st1" d="M5,8C4.4,8,4,8.4,4,9v6c0,0.6,0.4,1,1,1s1-0.4,1-1V9C6,8.4,5.6,8,5,8z"/>
<path class="st1" d="M12,10c-1.1,0-2,0.9-2,2v3c0,0.6-0.4,1-1,1s-1-0.4-1-1V9c0-0.6,0.4-1,1-1c0.4,0,0.8,0.2,0.9,0.6
	C10.5,8.2,11.2,8,12,8c2.2,0,4,1.8,4,4v3c0,0.6-0.4,1-1,1s-1-0.4-1-1v-3C14,10.9,13.1,10,12,10z"/>
</svg>
