<?xml version="1.0" encoding="utf-8"?>
<!-- Generator: Adobe Illustrator 24.1.1, SVG Export Plug-In . SVG Version: 6.00 Build 0)  -->
<svg version="1.1" id="Layer_1" xmlns="http://www.w3.org/2000/svg" xmlns:xlink="http://www.w3.org/1999/xlink" x="0px" y="0px"
	 viewBox="0 0 24 24" style="enable-background:new 0 0 24 24;" xml:space="preserve">
<style type="text/css">
	.st0{opacity:0.59;enable-background:new    ;}
	.st1{fill:#12131A;}
</style>
<g class="st0">
	<path class="st1" d="M15.9,18.8H8.1c-0.4,0-0.7-0.4-0.7-0.7V5.9c0-0.4,0.4-0.7,0.7-0.7h7.8c0.4,0,0.7,0.4,0.7,0.7v12
		C16.6,18.4,16.3,18.8,15.9,18.8z"/>
	<g>
		<path class="st1" d="M16.1,21.7H7.7c-0.5,0-0.9-0.4-0.9-0.9V3.2c0-0.5,0.4-0.9,0.9-0.9h8.3c0.5,0,0.9,0.4,0.9,0.9v17.4
			c0,0.2-0.2,0.4-0.2,0.7C16.6,21.7,16.4,21.7,16.1,21.7z M7.7,3C7.6,3,7.6,3.2,7.6,3.4v17.4c0,0.4,0,0.4,0.2,0.4h8.3
			c0.2,0,0.4-0.2,0.4-0.4V3.4c0-0.2-0.2-0.4-0.4-0.4H7.7L7.7,3z"/>
		<path class="st1" d="M7.4,18.1h9.2v0.7H7.4V18.1z M7.4,5.2h9.2v0.5H7.4V5.2z M10.5,3.8h3.3v0.7h-3.3V3.8z M11.5,19.7h0.7v0.7h-0.7
			V19.7z"/>
		<g>
			<path class="st1" d="M19.7,11.9h2v0.7h-2V11.9z M20.6,8.1l0.2,0.5L19,9.6L18.8,9L20.6,8.1z M19.2,15l1.8,0.9l-0.4,0.5l-1.8-0.9
				L19.2,15z M2.3,11.9h2v0.7h-2V11.9z"/>
			<g>
				<path class="st1" d="M4.8,15L5,15.5l-1.6,0.9L3,15.7L4.8,15z M3.2,8.1L5,9L4.8,9.4L3,8.5L3.2,8.1z"/>
			</g>
		</g>
	</g>
</g>
</svg>
